<?xml version="1.0" encoding="UTF-8"?>
<svg id="Layer_2" xmlns="http://www.w3.org/2000/svg" viewBox="0 0 360 360">
  <defs>
    <style>
      .cls-1 {
        fill: #d37e37;
      }

      .cls-2 {
        fill: #fff;
      }
    </style>
  </defs>
  <g id="Layer_26">
    <path class="cls-1" d="M0,23.16v313.68c0,12.79,10.37,23.16,23.16,23.16h313.68c12.79,0,23.16-10.37,23.16-23.16V23.16c0-12.79-10.37-23.16-23.16-23.16H23.16C10.37,0,0,10.37,0,23.16Z"/>
    <g>
      <path class="cls-2" d="M303.28,56.15h-51.85v16.68c3.23,2.81,5.29,6.93,5.29,11.54,0,8.43-6.86,15.29-15.29,15.29s-15.29-6.86-15.29-15.29c0-4.61,2.05-8.73,5.29-11.54v-16.68h-102.85v16.68c3.23,2.81,5.29,6.93,5.29,11.54,0,8.43-6.86,15.29-15.29,15.29s-15.29-6.86-15.29-15.29c0-4.61,2.06-8.73,5.29-11.54v-16.68h-51.85c-2.77,0-5,2.24-5,5v246.56c0,2.76,2.23,5,5,5h246.55c2.76,0,5-2.24,5-5V61.15c0-2.76-2.24-5-5-5ZM90.18,295.62l-21.4-21.42h21.4v21.42ZM298.28,302.71H100.18v-33.51c0-2.76-2.24-5-5-5h-33.45V112.59h236.55v190.12Z"/>
      <path class="cls-2" d="M241.43,89.37c2.76,0,5-2.24,5-5v-39.49c0-2.76-2.24-5-5-5s-5,2.24-5,5v39.49c0,2.76,2.23,5,5,5Z"/>
      <path class="cls-2" d="M118.58,89.37c2.76,0,5-2.24,5-5v-39.49c0-2.76-2.24-5-5-5s-5,2.24-5,5v39.49c0,2.76,2.24,5,5,5Z"/>
      <path class="cls-2" d="M142.97,169.88c0-6.93-2.73-11.06-8.51-12.15,4.62-.73,7.11-4.07,7.11-10.09,0-9.72-5.77-12.64-14.4-12.64h-12.15v49.22h14.22c9.12,0,13.73-4.92,13.73-14.34ZM123.94,141.26h1.82c5.47,0,8.02,1.28,8.02,6.5s-1.4,7.35-6.74,7.35h-3.1v-13.86ZM123.94,177.9v-16.59h3.16c5.35,0,7.29,2.67,7.29,8.51,0,5.53-1.52,8.08-6.99,8.08h-3.46Z"/>
      <rect class="cls-2" x="149.1" y="135" width="8.87" height="49.22"/>
      <path class="cls-2" d="M193.52,169.88c0-6.93-2.73-11.06-8.51-12.15,4.62-.73,7.11-4.07,7.11-10.09,0-9.72-5.77-12.64-14.4-12.64h-12.15v49.22h14.22c9.12,0,13.73-4.92,13.73-14.34ZM174.5,141.26h1.82c5.47,0,8.02,1.28,8.02,6.5s-1.4,7.35-6.74,7.35h-3.1v-13.86ZM174.5,177.9v-16.59h3.16c5.35,0,7.29,2.67,7.29,8.51,0,5.53-1.52,8.08-6.99,8.08h-3.46Z"/>
      <polygon class="cls-2" points="220.32 178.08 208.35 178.08 208.35 135 199.41 135 199.41 184.22 220.32 184.22 220.32 178.08"/>
      <polygon class="cls-2" points="245.78 178.08 233.93 178.08 233.93 161.74 243.17 161.74 243.17 155.48 233.93 155.48 233.93 141.32 245.66 141.32 245.66 135 225 135 225 184.22 245.78 184.22 245.78 178.08"/>
      <path class="cls-2" d="M99.06,223.6h4.25l5.9,22.55h8.99l-6.87-24.25c4.62-1.88,6.08-6.02,6.08-11.91,0-9.91-5.59-13.07-15.44-13.07h-11.85v49.22h8.93v-22.55ZM99.06,203.05h3.34c5.17,0,6.56,2.43,6.56,7.41,0,5.29-1.88,7.54-7.05,7.54h-2.86v-14.95Z"/>
      <polygon class="cls-2" points="144.88 203.24 144.88 196.92 124.22 196.92 124.22 246.14 145 246.14 145 240 133.15 240 133.15 223.66 142.39 223.66 142.39 217.4 133.15 217.4 133.15 203.24 144.88 203.24"/>
      <path class="cls-2" d="M158.19,234.78h8.57l1.94,11.36h8.32l-9.84-49.22h-9.6l-9.84,49.22h8.45l2-11.36ZM162.44,208.4l3.34,20.66h-6.68l3.34-20.66Z"/>
      <path class="cls-2" d="M181.94,246.14h11.97c11.55,0,15.25-5.17,15.25-15.98v-17.93c0-10.51-3.65-15.31-15.62-15.31h-11.61v49.22ZM190.88,203.3h2.67c5.89,0,6.5,2.43,6.5,8.33v18.84c0,6.14-.24,9.42-6.38,9.42h-2.8v-36.58Z"/>
      <polygon class="cls-2" points="224.72 223.66 233.96 223.66 233.96 217.4 224.72 217.4 224.72 203.24 236.45 203.24 236.45 196.92 215.79 196.92 215.79 246.14 236.57 246.14 236.57 240 224.72 240 224.72 223.66"/>
      <path class="cls-2" d="M241.8,246.14h8.93v-22.55h4.25l5.89,22.55h8.99l-6.87-24.25c4.62-1.88,6.08-6.02,6.08-11.91,0-9.91-5.59-13.07-15.44-13.07h-11.85v49.22ZM250.73,203.05h3.34c5.17,0,6.56,2.43,6.56,7.41,0,5.29-1.88,7.54-7.05,7.54h-2.86v-14.95Z"/>
    </g>
  </g>
</svg>